<?xml version="1.0" encoding="utf-8"?>
<!-- Generator: Adobe Illustrator 22.0.1, SVG Export Plug-In . SVG Version: 6.00 Build 0)  -->
<svg version="1.1" id="圖層_1" xmlns="http://www.w3.org/2000/svg" xmlns:xlink="http://www.w3.org/1999/xlink" x="0px" y="0px"
	 viewBox="0 0 217.7 52" style="enable-background:new 0 0 217.7 52;" xml:space="preserve">
<style type="text/css">
	.st0{fill:#F2F2F2;}
	.st1{fill:#FFFFFF;}
	.st2{fill:#FFAF0A;stroke:#FFAF0A;stroke-width:0.5;stroke-miterlimit:10;}
	.st3{stroke:#000000;stroke-width:1.5;stroke-miterlimit:10;}
	.st4{fill:#FF712E;stroke:#FF712E;stroke-width:0.5;stroke-miterlimit:10;}
	.st5{stroke:#000000;stroke-width:1.3;stroke-miterlimit:10;}
</style>
<polygon class="st2" points="13.7,21.1 28.6,7.2 22.7,7.2 11.9,17.4 11.9,7.2 7.6,7.2 7.6,37.9 11.9,37.9 11.9,25.2 23.9,37.9 
	29.6,37.9 "/>
<path class="st2" d="M48.5,14.9v2.8c-0.9-0.9-1.8-1.6-2.9-2.2c-1.5-0.8-3.3-1.2-5.2-1.2c-3.3,0-6.1,1.2-8.4,3.5
	c-2.3,2.3-3.5,5.2-3.5,8.5c0,3.4,1.2,6.3,3.5,8.6c2.3,2.4,5.1,3.5,8.4,3.5c1.8,0,3.5-0.4,5.1-1.1c1.1-0.5,2.1-1.2,3-2.1v2.7h4.1
	V14.9H48.5z M48.7,26.5c0,1.5-0.3,2.9-1,4.1c-0.7,1.2-1.7,2.2-2.9,2.9c-2.5,1.4-5.5,1.4-8,0c-1.2-0.7-2.2-1.7-2.9-3
	c-0.7-1.3-1.1-2.7-1.1-4.1c0-1.4,0.4-2.8,1.1-4.1c0.7-1.3,1.7-2.3,2.9-3c1.2-0.7,2.6-1.1,4-1.1c2.3,0,4.1,0.8,5.7,2.3
	C48,22.2,48.7,24.1,48.7,26.5z"/>
<path class="st2" d="M76.6,18.2c-2.3-2.6-5.3-3.9-8.8-3.9c-3.5,0-6.5,1.3-8.8,3.9c-2.1,2.3-3.2,5.1-3.2,8.3c0,3.2,1.1,6,3.4,8.4
	c2.2,2.4,5.2,3.6,8.7,3.6c3.5,0,6.4-1.2,8.6-3.6c2.2-2.4,3.4-5.2,3.4-8.4C79.8,23.3,78.7,20.5,76.6,18.2z M67.8,18.3
	c2.2,0,4,0.8,5.5,2.4c1.6,1.6,2.3,3.5,2.3,5.8c0,1.5-0.4,2.8-1.1,4.1c-0.7,1.3-1.7,2.2-2.8,2.9c-1.2,0.7-2.5,1-4,1
	c-1.4,0-2.8-0.3-4-1c-1.2-0.7-2.1-1.7-2.8-2.9c-0.7-1.3-1.1-2.6-1.1-4.1c0-2.3,0.8-4.2,2.3-5.8C63.8,19.1,65.6,18.3,67.8,18.3z"/>
<path class="st2" d="M102.3,18.7c-0.6-1.5-1.7-2.7-3-3.6c-1.4-0.9-2.9-1.3-4.7-1.3c-1.7,0-3.3,0.4-4.7,1.2c-1,0.5-1.9,1.3-2.8,2.2
	V5.9h-4.1v31.5H87v-8.6c0-2.8,0.1-4.8,0.4-5.8c0.4-1.5,1.2-2.8,2.4-3.8c1.2-1,2.6-1.5,4.1-1.5c1.3,0,2.4,0.3,3.2,1
	c0.8,0.6,1.4,1.6,1.7,2.9c0.2,0.8,0.3,2.4,0.3,4.9v11h4.1V25.6C103.2,22.5,102.9,20.2,102.3,18.7z"/>
<path class="st2" d="M115.7,24.3c-2-1-2.8-1.7-3.2-2.1c-0.4-0.5-0.7-1-0.7-1.6c0-0.6,0.2-1.1,0.8-1.6c0.5-0.5,1.1-0.7,1.9-0.7
	c1.2,0,2.6,0.7,3.9,2l0.5,0.5l2.7-2.8l-0.5-0.5c-2.1-2.1-4.3-3.1-6.5-3.1c-1.9,0-3.5,0.6-4.7,1.8c-1.3,1.2-1.9,2.8-1.9,4.6
	c0,1.4,0.4,2.7,1.2,3.8c0.8,1.1,2.2,2.1,4.2,3.2c2.2,1.1,3,1.8,3.3,2.2c0.4,0.5,0.6,1.1,0.6,1.7c0,0.8-0.3,1.5-1,2.1
	c-0.7,0.6-1.5,0.9-2.4,0.9c-1.4,0-2.8-0.7-4.1-2.2l-0.5-0.6l-2.6,3l0.3,0.4c0.8,1,1.8,1.9,3.1,2.4c1.2,0.6,2.5,0.9,3.9,0.9
	c2.1,0,3.8-0.7,5.2-2c1.4-1.4,2.1-3,2.1-5c0-1.4-0.4-2.7-1.2-3.8C119.4,26.5,117.9,25.5,115.7,24.3z"/>
<g>
	<rect x="126.9" y="14.9" class="st2" width="4.1" height="23.1"/>
	<path class="st2" d="M131.1,6.8c-0.6-0.6-1.3-0.9-2.1-0.9c-0.8,0-1.5,0.3-2.1,0.9C126.3,7.3,126,8,126,8.9c0,0.8,0.3,1.5,0.9,2.1
		c0.6,0.6,1.3,0.9,2.1,0.9c0.8,0,1.5-0.3,2.1-0.9c0.6-0.6,0.9-1.3,0.9-2.1C131.9,8,131.6,7.3,131.1,6.8z"/>
</g>
<path class="st2" d="M182.3,18.6c-0.6-1.5-1.7-2.7-3-3.6c-1.4-0.9-2.9-1.3-4.7-1.3c-1.7,0-3.3,0.4-4.8,1.2c-1,0.5-1.9,1.3-2.8,2.1
	v-2.8H163v23.1h4.1v-8.6c0-2.8,0.1-4.7,0.4-5.8c0.4-1.5,1.2-2.8,2.4-3.8c1.2-1,2.6-1.5,4.1-1.5c1.3,0,2.4,0.3,3.2,1
	c0.8,0.6,1.3,1.6,1.6,2.9c0.2,0.8,0.3,2.4,0.3,4.9v11h4.1V25.4C183.3,22.3,183,20.1,182.3,18.6z"/>
<path class="st2" d="M206,14.9v2.8c-1-1-2.1-1.8-3.1-2.3c-1.5-0.7-3.1-1.1-4.8-1.1c-2.1,0-4.1,0.5-5.9,1.6c-1.9,1.1-3.3,2.5-4.4,4.4
	c-1.1,1.8-1.6,3.8-1.6,6s0.5,4.1,1.5,5.9c1,1.8,2.5,3.2,4.3,4.3c1.9,1,3.9,1.6,6,1.6c1.8,0,3.5-0.4,5.1-1.1c1.1-0.5,2.1-1.2,2.9-2
	c0,2-0.3,3.5-0.8,4.4c-0.5,1-1.4,1.8-2.5,2.4c-1.2,0.7-2.7,1-4.5,1c-1.8,0-3.4-0.3-4.6-1c-1.2-0.6-2.2-1.6-2.9-3l-0.2-0.3H186
	l0.4,0.9c0.8,1.8,1.7,3.2,2.7,4.1c1,0.9,2.3,1.7,3.9,2.3c1.6,0.6,3.3,0.8,5.3,0.8c2.7,0,5-0.6,6.9-1.7c1.9-1.2,3.3-2.8,4.1-5
	c0.6-1.5,0.8-3.8,0.8-6.9v-18H206z M206.1,26.2c0,2.4-0.7,4.2-2.2,5.6c-1.5,1.4-3.3,2.1-5.8,2.1c-2.4,0-4.3-0.7-5.8-2.2
	c-1.5-1.4-2.2-3.2-2.2-5.5c0-1.5,0.4-2.8,1.1-4.1c0.7-1.2,1.7-2.2,3-2.9c1.3-0.7,2.6-1.1,4.1-1.1c1.4,0,2.7,0.3,3.9,1
	c1.2,0.7,2.2,1.6,2.8,2.8C205.8,23.3,206.1,24.7,206.1,26.2z"/>
<path class="st4" d="M157.7,24c-0.6-0.3-1.4-0.4-2,0c-0.5,0.3-0.9,0.8-0.9,1.5c-0.1,6.2-2.4,9-7.4,9s-7.3-2.9-7.4-9
	c0-1.2-0.9-1.8-1.8-1.8c0,0,0,0,0,0c-0.9,0-1.8,0.6-1.8,1.8c0,3.7,1,6.9,2.6,9c1.9,2.4,4.7,3.7,8.4,3.7c0,0,0,0,0,0
	c7,0,11-4.5,11.1-12.7C158.5,24.8,158.2,24.3,157.7,24z"/>
<circle class="st4" cx="137.8" cy="17.7" r="2.4"/>
<circle class="st4" cx="156.8" cy="17.7" r="2.4"/>
</svg>
